<svg width="58" height="60" viewBox="0 0 58 60" fill="none" xmlns="http://www.w3.org/2000/svg">
<g clip-path="url(#clip0_7_177)">
<path fill-rule="evenodd" clip-rule="evenodd" d="M40.2755 33.3817C39.7923 33.9976 40.0808 33.1938 39.8026 34.4884C39.5936 35.4606 40.248 38.8016 39.6635 41.2097C38.5888 41.8475 37.7563 41.9182 36.0072 41.8161L35.7141 34.733L28.969 41.1666C27.2508 42.9913 23.3999 46.2521 22.4094 47.8879C23.3655 48.6536 35.824 59.2387 36.8111 59.6471L36.4973 52.5718C39.2667 52.5067 42.0446 52.33 44.8072 52.2324C47.7907 52.127 49.8627 52.0019 50.5852 49.5617C51.0232 48.0803 50.7891 35.386 50.6665 33.012C49.3755 33.9617 45.7999 38.0544 44.8255 38.6344C43.8338 38.1066 43.0924 36.9746 42.383 36.1068C41.6038 35.1549 40.8423 34.4183 40.2761 33.3817H40.2755Z" fill="#059FDE"/>
<path fill-rule="evenodd" clip-rule="evenodd" d="M21.8992 23.4288C22.4918 24.3403 21.6828 24.0879 22.8056 25.3775L23.9518 23.8029C24.5535 23.113 24.5547 22.9385 25.3373 22.4746L35.4444 12.3797C35.1822 12.7371 35.3534 12.5329 35.0316 12.106C33.8333 10.5163 23.4462 2.68034 21.1996 0.354077L21.1641 0.353516L21.3776 7.48263C17.0842 8.06602 8.7285 6.49424 7.31718 10.4282C6.78357 11.9153 7.1918 24.3252 7.17176 27.0536L13.1926 21.429L17.4804 26.2004C17.9825 26.629 17.4179 26.2543 18.133 26.6649C17.8554 18.6798 17.0315 18.378 21.882 18.2703C21.9027 19.9514 22.2135 21.788 21.8987 23.4293L21.8992 23.4288Z" fill="#059FDE"/>
<path fill-rule="evenodd" clip-rule="evenodd" d="M33.4731 8.22699C35.5177 9.26138 36.5305 10.9257 38.555 11.9584C37.8897 13.1106 36.6261 14.2151 35.7513 15.1435C34.7482 16.2088 33.3758 16.9318 32.742 18.2164C38.5413 18.1188 40.0522 17.3133 39.6898 22.1481L32.5033 21.9893L38.4943 28.9552C39.1001 29.6789 39.3262 29.768 40.0104 30.4384C41.7641 32.1554 43.3065 35.0073 44.8913 35.759C45.7043 35.3349 45.2423 35.6558 45.9202 35.0309C46.1607 34.8093 46.3891 34.5126 46.6324 34.2338C47.1941 33.5898 47.6103 33.076 48.2092 32.4769L56.1612 24.4469C56.4612 24.1266 56.6313 23.9802 56.9078 23.7014L57.8829 22.515L50.8057 22.3792C50.3957 18.6545 52.1775 10.7434 49.6062 8.89733C48.0861 7.80572 35.0173 7.22738 33.4737 8.22699H33.4731Z" fill="#0D68B1"/>
<path fill-rule="evenodd" clip-rule="evenodd" d="M18.2264 40.7239C17.8468 39.8034 17.9183 39.1819 18.1199 37.9439L24.4247 38.0718C26.0072 38.1458 24.8919 38.1251 25.2514 37.8452L24.9692 37.545L24.7132 37.1922L24.4739 36.8528L24.2335 36.4826L23.8321 36.1371L18.4113 30.2471C17.3584 28.9631 16.9673 28.5367 15.6745 27.2673C14.9211 26.5274 13.7863 25.1559 13.2842 24.296C11.7784 24.908 11.5105 26.0439 9.80772 27.6454C9.08345 28.3264 8.74164 28.4677 8.06662 29.2099L1.55454 35.9744C0.535417 36.8612 0.640765 36.3968 9.15527e-05 37.618L7.04979 37.7565C7.64237 41.9401 5.23598 49.5157 8.78516 51.5357C10.1564 52.316 22.0767 52.4955 24.2718 52.2352C23.2172 51.4891 20.7793 48.9565 19.1974 48.1818C19.5953 47.5378 24.3274 42.2183 25.015 42.146C22.6824 41.3472 19.0932 43.131 18.2264 40.7239Z" fill="#0D68B1"/>
<path fill-rule="evenodd" clip-rule="evenodd" d="M24.2329 36.4826L24.4733 36.8529L24.7127 37.1922L24.9686 37.5451L25.2509 37.8452C24.8913 38.1251 26.0066 38.1459 24.4241 38.0718L18.1193 37.9439C17.9177 39.1819 17.8462 39.8035 18.2258 40.724L18.1903 38.1896L25.6104 38.3686L25.2503 37.8458L24.968 37.5456L24.7121 37.1928L24.4728 36.8534L24.2323 36.4832C24.2741 36.0002 24.3709 36.1494 23.8309 36.1377L24.2323 36.4832L24.2329 36.4826Z" fill="#B3D4E2"/>
<path fill-rule="evenodd" clip-rule="evenodd" d="M21.8992 23.4288C21.7578 24.5086 21.8254 24.738 22.2725 25.6344C23.6243 25.1458 23.6168 24.3106 25.3373 22.474C24.5552 22.9385 24.5535 23.1124 23.9518 23.8024L22.8056 25.3769C21.6828 24.0873 22.4918 24.3397 21.8992 23.4282V23.4288Z" fill="#B3D4E2"/>
</g>
<defs>
<clipPath id="clip0_7_177">
<rect width="57.8824" height="59.2941" fill="white" transform="translate(0 0.352936)"/>
</clipPath>
</defs>
</svg>
