<svg width="347" height="96" viewBox="0 0 347 96" fill="none" xmlns="http://www.w3.org/2000/svg">
<g clip-path="url(#clip0_7_190)">
<path fill-rule="evenodd" clip-rule="evenodd" d="M40.2755 51.3817C39.7923 51.9976 40.0808 51.1938 39.8026 52.4884C39.5936 53.4606 40.248 56.8016 39.6635 59.2097C38.5888 59.8475 37.7563 59.9182 36.0072 59.8161L35.7141 52.733L28.969 59.1666C27.2508 60.9913 23.3999 64.2521 22.4094 65.8879C23.3655 66.6536 35.824 77.2387 36.8111 77.6471L36.4973 70.5718C39.2667 70.5067 42.0446 70.33 44.8072 70.2324C47.7907 70.127 49.8627 70.0019 50.5852 67.5617C51.0232 66.0803 50.7891 53.386 50.6665 51.012C49.3755 51.9617 45.7999 56.0544 44.8255 56.6344C43.8338 56.1066 43.0924 54.9746 42.383 54.1068C41.6038 53.1549 40.8423 52.4183 40.2761 51.3817H40.2755Z" fill="#059FDE"/>
<path fill-rule="evenodd" clip-rule="evenodd" d="M21.8992 41.4288C22.4918 42.3403 21.6828 42.0879 22.8056 43.3775L23.9518 41.8029C24.5535 41.113 24.5547 40.9385 25.3373 40.4746L35.4444 30.3797C35.1822 30.7371 35.3534 30.5329 35.0316 30.106C33.8333 28.5163 23.4462 20.6803 21.1996 18.3541L21.1641 18.3535L21.3776 25.4826C17.0842 26.066 8.7285 24.4942 7.31718 28.4282C6.78357 29.9153 7.1918 42.3252 7.17176 45.0536L13.1926 39.429L17.4804 44.2004C17.9825 44.629 17.4179 44.2543 18.133 44.6649C17.8554 36.6798 17.0315 36.378 21.882 36.2703C21.9027 37.9514 22.2135 39.788 21.8987 41.4293L21.8992 41.4288Z" fill="#059FDE"/>
<path fill-rule="evenodd" clip-rule="evenodd" d="M33.4731 26.227C35.5177 27.2614 36.5305 28.9257 38.555 29.9584C37.8897 31.1106 36.6261 32.2151 35.7513 33.1435C34.7482 34.2088 33.3758 34.9318 32.742 36.2164C38.5413 36.1188 40.0522 35.3133 39.6898 40.1481L32.5033 39.9893L38.4943 46.9552C39.1001 47.6789 39.3262 47.768 40.0104 48.4384C41.7641 50.1554 43.3065 53.0073 44.8913 53.759C45.7043 53.3349 45.2423 53.6558 45.9202 53.0309C46.1607 52.8093 46.3891 52.5126 46.6324 52.2338C47.1941 51.5898 47.6103 51.076 48.2092 50.4769L56.1612 42.4469C56.4612 42.1266 56.6313 41.9802 56.9078 41.7014L57.8829 40.515L50.8057 40.3792C50.3957 36.6545 52.1775 28.7434 49.6062 26.8973C48.0861 25.8057 35.0173 25.2274 33.4737 26.227H33.4731Z" fill="#0D68B1"/>
<path fill-rule="evenodd" clip-rule="evenodd" d="M18.2264 58.7239C17.8468 57.8034 17.9183 57.1819 18.1199 55.9439L24.4247 56.0718C26.0072 56.1458 24.8919 56.1251 25.2514 55.8452L24.9692 55.545L24.7132 55.1922L24.4739 54.8528L24.2335 54.4826L23.8321 54.1371L18.4113 48.2471C17.3584 46.9631 16.9673 46.5367 15.6745 45.2673C14.9211 44.5274 13.7863 43.1559 13.2842 42.296C11.7784 42.908 11.5105 44.0439 9.80772 45.6454C9.08345 46.3264 8.74164 46.4677 8.06662 47.2099L1.55454 53.9744C0.535417 54.8612 0.640765 54.3968 9.15527e-05 55.618L7.04979 55.7565C7.64237 59.9401 5.23598 67.5157 8.78516 69.5357C10.1564 70.316 22.0767 70.4955 24.2718 70.2352C23.2172 69.4891 20.7793 66.9565 19.1974 66.1818C19.5953 65.5378 24.3274 60.2183 25.015 60.146C22.6824 59.3472 19.0932 61.131 18.2264 58.7239Z" fill="#0D68B1"/>
<path fill-rule="evenodd" clip-rule="evenodd" d="M24.2329 54.4826L24.4733 54.8529L24.7127 55.1922L24.9686 55.5451L25.2509 55.8452C24.8913 56.1251 26.0066 56.1459 24.4241 56.0718L18.1193 55.9439C17.9177 57.1819 17.8462 57.8035 18.2258 58.724L18.1903 56.1896L25.6104 56.3686L25.2503 55.8458L24.968 55.5456L24.7121 55.1928L24.4728 54.8534L24.2323 54.4832C24.2741 54.0002 24.3709 54.1494 23.8309 54.1377L24.2323 54.4832L24.2329 54.4826Z" fill="#B3D4E2"/>
<path fill-rule="evenodd" clip-rule="evenodd" d="M21.8992 41.4288C21.7578 42.5086 21.8254 42.738 22.2725 43.6344C23.6243 43.1458 23.6168 42.3106 25.3373 40.474C24.5552 40.9385 24.5535 41.1124 23.9518 41.8024L22.8056 43.3769C21.6828 42.0873 22.4918 42.3397 21.8992 41.4282V41.4288Z" fill="#B3D4E2"/>
</g>
<path d="M79.6122 79.7562C77.6697 79.7562 75.7045 79.44 73.7167 78.8075C71.7741 78.2202 70.193 77.4296 68.9732 76.4358L73.4457 67.4231C74.2137 68.1007 75.0946 68.6202 76.0885 68.9816C77.1275 69.3882 78.144 69.5915 79.1379 69.5915C80.5384 69.5915 81.6452 69.2753 82.4584 68.6428C83.2715 68.0104 83.9718 67.0165 84.5591 65.6612L86.2532 61.392L87.2697 60.1045L99.7384 29.2715H112.004L96.1468 67.4908C94.8819 70.6532 93.4137 73.1153 91.7421 74.8772C90.1158 76.6842 88.2861 77.9492 86.2532 78.672C84.2654 79.3948 82.0518 79.7562 79.6122 79.7562ZM84.6268 67.5586L68.4311 29.2715H81.6452L93.5718 58.9525L84.6268 67.5586ZM133.585 66.6099C129.248 66.6099 125.453 65.7967 122.2 64.1704C118.993 62.4988 116.485 60.24 114.678 57.3939C112.916 54.5026 112.036 51.2273 112.036 47.568C112.036 43.9087 112.894 40.656 114.611 37.8099C116.372 34.9186 118.789 32.6824 121.861 31.1012C124.933 29.4748 128.389 28.6616 132.229 28.6616C135.844 28.6616 139.141 29.4071 142.123 30.8979C145.105 32.3435 147.476 34.4894 149.238 37.3355C151 40.1816 151.881 43.6376 151.881 47.7035C151.881 48.1553 151.859 48.6748 151.813 49.2621C151.768 49.8494 151.723 50.3915 151.678 50.8885H122.607V44.112H144.834L139.955 46.0094C140 44.3379 139.684 42.8922 139.006 41.6725C138.373 40.4527 137.47 39.504 136.295 38.8264C135.166 38.1487 133.833 37.8099 132.297 37.8099C130.761 37.8099 129.406 38.1487 128.231 38.8264C127.102 39.504 126.221 40.4753 125.588 41.7402C124.956 42.96 124.64 44.4056 124.64 46.0772V48.0424C124.64 49.8494 125.001 51.408 125.724 52.7181C126.492 54.0282 127.576 55.0447 128.977 55.7675C130.377 56.4452 132.049 56.784 133.991 56.784C135.798 56.784 137.334 56.5355 138.599 56.0386C139.909 55.4965 141.197 54.6833 142.462 53.5991L149.238 60.6466C147.476 62.5892 145.308 64.08 142.733 65.1191C140.158 66.1129 137.108 66.6099 133.585 66.6099ZM171.167 66.6099C168.05 66.6099 165.001 66.2485 162.019 65.5256C159.082 64.8028 156.711 63.8993 154.904 62.8151L158.766 54.0056C160.483 55.0447 162.493 55.8805 164.797 56.5129C167.101 57.1002 169.36 57.3939 171.574 57.3939C173.742 57.3939 175.233 57.168 176.046 56.7162C176.905 56.2645 177.334 55.6546 177.334 54.8866C177.334 54.1638 176.927 53.6442 176.114 53.328C175.346 52.9666 174.307 52.6955 172.997 52.5148C171.732 52.3341 170.331 52.1308 168.795 51.9049C167.259 51.6791 165.701 51.3854 164.12 51.024C162.584 50.6174 161.161 50.0301 159.85 49.2621C158.585 48.4489 157.569 47.3647 156.801 46.0094C156.033 44.6541 155.649 42.9374 155.649 40.8593C155.649 38.5101 156.327 36.432 157.682 34.6249C159.082 32.7727 161.115 31.3271 163.781 30.288C166.446 29.2038 169.699 28.6616 173.539 28.6616C176.114 28.6616 178.712 28.9327 181.332 29.4748C183.997 29.9718 186.233 30.7398 188.041 31.7788L184.178 40.5205C182.371 39.4814 180.564 38.7812 178.757 38.4198C176.95 38.0132 175.233 37.8099 173.607 37.8099C171.438 37.8099 169.902 38.0584 168.999 38.5553C168.14 39.0522 167.711 39.6621 167.711 40.3849C167.711 41.1078 168.095 41.6725 168.863 42.0791C169.631 42.4405 170.648 42.7341 171.913 42.96C173.223 43.1407 174.646 43.344 176.182 43.5699C177.718 43.7506 179.254 44.0442 180.79 44.4508C182.371 44.8574 183.794 45.4673 185.059 46.2805C186.369 47.0485 187.408 48.1101 188.176 49.4654C188.944 50.7755 189.328 52.4696 189.328 54.5478C189.328 56.8066 188.628 58.8395 187.227 60.6466C185.872 62.4536 183.839 63.8993 181.129 64.9835C178.463 66.0678 175.143 66.6099 171.167 66.6099Z" fill="#0F69B2"/>
<path d="M196.648 42.4117V30.2017H199.491L204.55 38.5045H203.05L207.969 30.2017H210.812L210.847 42.4117H207.672L207.637 35.0334H208.178L204.497 41.2082H202.963L199.177 35.0334H199.84V42.4117H196.648ZM213.291 42.4117V30.2017H216.744V42.4117H213.291ZM225.289 42.6559C224.324 42.6559 223.428 42.5048 222.603 42.2024C221.789 41.8885 221.079 41.4466 220.475 40.8768C219.882 40.307 219.416 39.6383 219.079 38.8708C218.742 38.0917 218.573 37.237 218.573 36.3067C218.573 35.3764 218.742 34.5275 219.079 33.76C219.416 32.9809 219.882 32.3064 220.475 31.7366C221.079 31.1668 221.789 30.7308 222.603 30.4284C223.428 30.1144 224.324 29.9575 225.289 29.9575C226.417 29.9575 227.423 30.1551 228.307 30.5505C229.202 30.9459 229.946 31.5157 230.539 32.2599L228.341 34.2484C227.946 33.7833 227.51 33.4286 227.033 33.1844C226.568 32.9402 226.045 32.8181 225.463 32.8181C224.963 32.8181 224.504 32.8995 224.085 33.0623C223.667 33.2251 223.306 33.4635 223.004 33.7775C222.713 34.0798 222.481 34.4461 222.306 34.8764C222.143 35.3066 222.062 35.7834 222.062 36.3067C222.062 36.83 222.143 37.3068 222.306 37.737C222.481 38.1673 222.713 38.5394 223.004 38.8534C223.306 39.1557 223.667 39.3883 224.085 39.5511C224.504 39.7139 224.963 39.7953 225.463 39.7953C226.045 39.7953 226.568 39.6732 227.033 39.429C227.51 39.1848 227.946 38.8301 228.341 38.365L230.539 40.3535C229.946 41.0861 229.202 41.6559 228.307 42.0629C227.423 42.4583 226.417 42.6559 225.289 42.6559ZM232.079 42.4117V30.2017H237.661C238.777 30.2017 239.737 30.3819 240.539 30.7424C241.353 31.1029 241.981 31.6262 242.423 32.3123C242.865 32.9867 243.086 33.7891 243.086 34.7194C243.086 35.6381 242.865 36.4346 242.423 37.1091C241.981 37.7719 241.353 38.2836 240.539 38.6441C239.737 38.9929 238.777 39.1674 237.661 39.1674H233.998L235.533 37.7196V42.4117H232.079ZM239.632 42.4117L236.597 37.9638H240.277L243.33 42.4117H239.632ZM235.533 38.0859L233.998 36.4986H237.452C238.173 36.4986 238.708 36.3416 239.056 36.0276C239.417 35.7136 239.597 35.2776 239.597 34.7194C239.597 34.1496 239.417 33.7077 239.056 33.3937C238.708 33.0798 238.173 32.9228 237.452 32.9228H233.998L235.533 31.3355V38.0859ZM251.148 42.6559C250.172 42.6559 249.27 42.499 248.445 42.185C247.619 41.871 246.898 41.4291 246.282 40.8593C245.677 40.2779 245.206 39.6034 244.869 38.8359C244.532 38.0684 244.363 37.2254 244.363 36.3067C244.363 35.388 244.532 34.545 244.869 33.7775C245.206 33.01 245.677 32.3413 246.282 31.7715C246.898 31.1901 247.619 30.7424 248.445 30.4284C249.27 30.1144 250.172 29.9575 251.148 29.9575C252.137 29.9575 253.038 30.1144 253.852 30.4284C254.678 30.7424 255.393 31.1901 255.998 31.7715C256.602 32.3413 257.073 33.01 257.41 33.7775C257.759 34.545 257.934 35.388 257.934 36.3067C257.934 37.2254 257.759 38.0743 257.41 38.8534C257.073 39.6209 256.602 40.2895 255.998 40.8593C255.393 41.4291 254.678 41.871 253.852 42.185C253.038 42.499 252.137 42.6559 251.148 42.6559ZM251.148 39.7953C251.614 39.7953 252.044 39.7139 252.439 39.5511C252.846 39.3883 253.195 39.1557 253.486 38.8534C253.788 38.5394 254.021 38.1673 254.184 37.737C254.358 37.3068 254.445 36.83 254.445 36.3067C254.445 35.7718 254.358 35.295 254.184 34.8764C254.021 34.4461 253.788 34.0798 253.486 33.7775C253.195 33.4635 252.846 33.2251 252.439 33.0623C252.044 32.8995 251.614 32.8181 251.148 32.8181C250.683 32.8181 250.247 32.8995 249.84 33.0623C249.445 33.2251 249.096 33.4635 248.794 33.7775C248.503 34.0798 248.27 34.4461 248.096 34.8764C247.933 35.295 247.852 35.7718 247.852 36.3067C247.852 36.83 247.933 37.3068 248.096 37.737C248.27 38.1673 248.503 38.5394 248.794 38.8534C249.096 39.1557 249.445 39.3883 249.84 39.5511C250.247 39.7139 250.683 39.7953 251.148 39.7953ZM262.952 35.5567H268.586V38.2254H262.952V35.5567ZM263.196 42.4117H259.743V30.2017H269.319V32.8704H263.196V42.4117ZM270.934 42.4117V30.2017H274.388V42.4117H270.934ZM276.845 42.4117V30.2017H279.688L286.421 38.3301H285.078V30.2017H288.462V42.4117H285.619L278.886 34.2833H280.229V42.4117H276.845ZM289.433 42.4117L294.823 30.2017H298.224L303.631 42.4117H300.038L295.817 31.8936H297.178L292.956 42.4117H289.433ZM292.381 40.0395L293.27 37.4928H299.236L300.125 40.0395H292.381ZM304.611 42.4117V30.2017H307.454L314.187 38.3301H312.844V30.2017H316.228V42.4117H313.384L306.651 34.2833H307.995V42.4117H304.611ZM324.751 42.6559C323.786 42.6559 322.891 42.5048 322.065 42.2024C321.251 41.8885 320.542 41.4466 319.937 40.8768C319.344 40.307 318.879 39.6383 318.542 38.8708C318.204 38.0917 318.036 37.237 318.036 36.3067C318.036 35.3764 318.204 34.5275 318.542 33.76C318.879 32.9809 319.344 32.3064 319.937 31.7366C320.542 31.1668 321.251 30.7308 322.065 30.4284C322.891 30.1144 323.786 29.9575 324.751 29.9575C325.879 29.9575 326.885 30.1551 327.769 30.5505C328.664 30.9459 329.409 31.5157 330.002 32.2599L327.804 34.2484C327.409 33.7833 326.972 33.4286 326.496 33.1844C326.031 32.9402 325.507 32.8181 324.926 32.8181C324.426 32.8181 323.966 32.8995 323.548 33.0623C323.129 33.2251 322.769 33.4635 322.466 33.7775C322.176 34.0798 321.943 34.4461 321.769 34.8764C321.606 35.3066 321.524 35.7834 321.524 36.3067C321.524 36.83 321.606 37.3068 321.769 37.737C321.943 38.1673 322.176 38.5394 322.466 38.8534C322.769 39.1557 323.129 39.3883 323.548 39.5511C323.966 39.7139 324.426 39.7953 324.926 39.7953C325.507 39.7953 326.031 39.6732 326.496 39.429C326.972 39.1848 327.409 38.8301 327.804 38.365L330.002 40.3535C329.409 41.0861 328.664 41.6559 327.769 42.0629C326.885 42.4583 325.879 42.6559 324.751 42.6559ZM334.716 34.9287H340.385V37.5103H334.716V34.9287ZM334.96 39.743H341.345V42.4117H331.542V30.2017H341.118V32.8704H334.96V39.743Z" fill="#0F69B2"/>
<path d="M196.92 57.7874V45.5773H203.165C204.77 45.5773 205.967 45.8738 206.758 46.4669C207.549 47.0483 207.944 47.8158 207.944 48.7694C207.944 49.3973 207.776 49.9497 207.438 50.4265C207.113 50.8916 206.648 51.2637 206.043 51.5428C205.45 51.8103 204.741 51.944 203.915 51.944L204.264 51.1067C205.124 51.1067 205.874 51.2405 206.514 51.5079C207.153 51.7637 207.648 52.1417 207.997 52.6417C208.357 53.1301 208.537 53.729 208.537 54.4383C208.537 55.4965 208.107 56.3222 207.246 56.9152C206.398 57.4967 205.153 57.7874 203.514 57.7874H196.92ZM200.339 55.293H203.235C203.828 55.293 204.275 55.1942 204.578 54.9965C204.892 54.7872 205.049 54.4732 205.049 54.0546C205.049 53.636 204.892 53.3278 204.578 53.1301C204.275 52.9208 203.828 52.8161 203.235 52.8161H200.095V50.4265H202.711C203.293 50.4265 203.729 50.3276 204.02 50.1299C204.31 49.9322 204.456 49.6357 204.456 49.2403C204.456 48.845 204.31 48.5542 204.02 48.3682C203.729 48.1705 203.293 48.0716 202.711 48.0716H200.339V55.293ZM208.861 57.7874L214.251 45.5773H217.652L223.06 57.7874H219.466L215.245 47.2693H216.606L212.384 57.7874H208.861ZM211.809 55.4151L212.698 52.8685H218.664L219.553 55.4151H211.809ZM224.039 57.7874V45.5773H226.882L233.615 53.7057H232.272V45.5773H235.656V57.7874H232.812L226.079 49.659H227.423V57.7874H224.039ZM241.179 55.0837L240.987 51.2114L246.238 45.5773H250.04L244.807 51.2463L242.889 53.2522L241.179 55.0837ZM238.092 57.7874V45.5773H241.511V57.7874H238.092ZM246.29 57.7874L242.313 52.7464L244.563 50.3392L250.302 57.7874H246.29Z" fill="#0F69B2"/>
<path d="M197.228 66.2941V61.353H199.487C199.938 61.353 200.327 61.4259 200.651 61.5718C200.981 61.7177 201.235 61.9294 201.414 62.2071C201.592 62.48 201.682 62.8047 201.682 63.1812C201.682 63.553 201.592 63.8753 201.414 64.1482C201.235 64.4165 200.981 64.6235 200.651 64.7694C200.327 64.9106 199.938 64.9812 199.487 64.9812H198.004L198.625 64.3953V66.2941H197.228ZM200.284 66.2941L199.056 64.4941H200.545L201.781 66.2941H200.284ZM198.625 64.5435L198.004 63.9012H199.402C199.694 63.9012 199.91 63.8377 200.051 63.7106C200.197 63.5835 200.27 63.4071 200.27 63.1812C200.27 62.9506 200.197 62.7718 200.051 62.6447C199.91 62.5177 199.694 62.4541 199.402 62.4541H198.004L198.625 61.8118V64.5435ZM205.411 66.393C205.02 66.393 204.658 66.3318 204.323 66.2094C203.994 66.0824 203.707 65.9035 203.462 65.673C203.222 65.4424 203.034 65.1718 202.898 64.8612C202.761 64.5459 202.693 64.2 202.693 63.8235C202.693 63.4471 202.761 63.1035 202.898 62.793C203.034 62.4777 203.222 62.2047 203.462 61.9741C203.707 61.7435 203.994 61.5671 204.323 61.4447C204.658 61.3177 205.02 61.2541 205.411 61.2541C205.867 61.2541 206.274 61.3341 206.632 61.4941C206.994 61.6541 207.295 61.8847 207.535 62.1859L206.646 62.9906C206.486 62.8024 206.309 62.6588 206.116 62.56C205.928 62.4612 205.716 62.4118 205.481 62.4118C205.279 62.4118 205.093 62.4447 204.923 62.5106C204.754 62.5765 204.608 62.673 204.486 62.8C204.368 62.9224 204.274 63.0706 204.203 63.2447C204.138 63.4188 204.105 63.6118 204.105 63.8235C204.105 64.0353 204.138 64.2282 204.203 64.4024C204.274 64.5765 204.368 64.7271 204.486 64.8541C204.608 64.9765 204.754 65.0706 204.923 65.1365C205.093 65.2024 205.279 65.2353 205.481 65.2353C205.716 65.2353 205.928 65.1859 206.116 65.0871C206.309 64.9882 206.486 64.8447 206.646 64.6565L207.535 65.4612C207.295 65.7577 206.994 65.9882 206.632 66.153C206.274 66.313 205.867 66.393 205.411 66.393ZM209.092 63.993C208.866 63.993 208.675 63.9177 208.52 63.7671C208.365 63.6165 208.287 63.4259 208.287 63.1953C208.287 62.9553 208.365 62.7647 208.52 62.6235C208.675 62.4777 208.866 62.4047 209.092 62.4047C209.318 62.4047 209.508 62.4777 209.663 62.6235C209.819 62.7647 209.896 62.9553 209.896 63.1953C209.896 63.4259 209.819 63.6165 209.663 63.7671C209.508 63.9177 209.318 63.993 209.092 63.993ZM209.092 66.3577C208.866 66.3577 208.675 66.2824 208.52 66.1318C208.365 65.9812 208.287 65.7906 208.287 65.56C208.287 65.32 208.365 65.1294 208.52 64.9882C208.675 64.8424 208.866 64.7694 209.092 64.7694C209.318 64.7694 209.508 64.8424 209.663 64.9882C209.819 65.1294 209.896 65.32 209.896 65.56C209.896 65.7906 209.819 65.9812 209.663 66.1318C209.508 66.2824 209.318 66.3577 209.092 66.3577ZM214.098 66.2941V61.8541L214.698 62.433H213.18V61.353H215.496V66.2941H214.098ZM218.385 66.393C218.041 66.393 217.697 66.3506 217.354 66.2659C217.015 66.1812 216.719 66.0612 216.465 65.9059L216.973 64.8541C217.17 64.9859 217.389 65.0871 217.629 65.1577C217.874 65.2282 218.112 65.2635 218.342 65.2635C218.582 65.2635 218.773 65.2188 218.914 65.1294C219.055 65.04 219.126 64.913 219.126 64.7482C219.126 64.6024 219.067 64.4871 218.949 64.4024C218.832 64.313 218.639 64.2682 218.37 64.2682H217.785V63.3859L219.112 61.953L219.246 62.433H216.719V61.353H220.29V62.2282L218.963 63.6612L218.279 63.273H218.66C219.276 63.273 219.742 63.4118 220.057 63.6894C220.377 63.9624 220.537 64.3153 220.537 64.7482C220.537 65.0306 220.46 65.2965 220.305 65.5459C220.154 65.7953 219.921 66 219.606 66.16C219.29 66.3153 218.883 66.393 218.385 66.393ZM222.2 66.2941V61.8541L222.8 62.433H221.282V61.353H223.598V66.2941H222.2ZM226.642 61.2541C227.108 61.2541 227.51 61.3459 227.849 61.5294C228.193 61.713 228.459 61.9859 228.647 62.3482C228.84 62.7059 228.936 63.153 228.936 63.6894C228.936 64.2635 228.823 64.753 228.597 65.1577C228.376 65.5577 228.068 65.8635 227.673 66.0753C227.282 66.2871 226.826 66.393 226.303 66.393C226.03 66.393 225.767 66.36 225.513 66.2941C225.259 66.233 225.04 66.1459 224.856 66.033L225.364 65.0306C225.506 65.1294 225.651 65.1977 225.802 65.2353C225.957 65.2682 226.115 65.2847 226.275 65.2847C226.656 65.2847 226.96 65.1694 227.186 64.9388C227.411 64.7082 227.524 64.3718 227.524 63.9294C227.524 63.8494 227.524 63.7671 227.524 63.6824C227.524 63.593 227.517 63.5035 227.503 63.4141L227.849 63.7035C227.764 63.8777 227.654 64.0235 227.517 64.1412C227.381 64.2588 227.221 64.3482 227.037 64.4094C226.854 64.4706 226.644 64.5012 226.409 64.5012C226.099 64.5012 225.814 64.4377 225.555 64.3106C225.301 64.1788 225.096 63.9977 224.941 63.7671C224.786 63.5318 224.708 63.2565 224.708 62.9412C224.708 62.5977 224.795 62.3012 224.969 62.0518C225.143 61.7977 225.376 61.6024 225.668 61.4659C225.96 61.3247 226.284 61.2541 226.642 61.2541ZM226.734 62.2494C226.602 62.2494 226.487 62.2753 226.388 62.3271C226.289 62.3788 226.209 62.4518 226.148 62.5459C226.091 62.6353 226.063 62.7459 226.063 62.8777C226.063 63.0659 226.124 63.2165 226.247 63.3294C226.374 63.4424 226.539 63.4988 226.741 63.4988C226.877 63.4988 226.997 63.473 227.101 63.4212C227.204 63.3694 227.284 63.2965 227.341 63.2024C227.397 63.1082 227.426 62.9977 227.426 62.8706C227.426 62.7482 227.397 62.6424 227.341 62.553C227.284 62.4588 227.204 62.3859 227.101 62.3341C226.997 62.2777 226.875 62.2494 226.734 62.2494ZM232.094 66.393C231.671 66.393 231.294 66.2918 230.965 66.0894C230.64 65.8871 230.384 65.5953 230.196 65.2141C230.007 64.833 229.913 64.3694 229.913 63.8235C229.913 63.2777 230.007 62.8141 230.196 62.433C230.384 62.0518 230.64 61.76 230.965 61.5577C231.294 61.3553 231.671 61.2541 232.094 61.2541C232.513 61.2541 232.885 61.3553 233.21 61.5577C233.539 61.76 233.798 62.0518 233.986 62.433C234.174 62.8141 234.268 63.2777 234.268 63.8235C234.268 64.3694 234.174 64.833 233.986 65.2141C233.798 65.5953 233.539 65.8871 233.21 66.0894C232.885 66.2918 232.513 66.393 232.094 66.393ZM232.094 65.2494C232.245 65.2494 232.377 65.2024 232.49 65.1082C232.607 65.0141 232.699 64.8635 232.765 64.6565C232.831 64.4447 232.864 64.1671 232.864 63.8235C232.864 63.4753 232.831 63.1977 232.765 62.9906C232.699 62.7835 232.607 62.633 232.49 62.5388C232.377 62.4447 232.245 62.3977 232.094 62.3977C231.944 62.3977 231.81 62.4447 231.692 62.5388C231.579 62.633 231.487 62.7835 231.417 62.9906C231.351 63.1977 231.318 63.4753 231.318 63.8235C231.318 64.1671 231.351 64.4447 231.417 64.6565C231.487 64.8635 231.579 65.0141 231.692 65.1082C231.81 65.2024 231.944 65.2494 232.094 65.2494ZM237.527 66.393C237.065 66.393 236.663 66.3012 236.32 66.1177C235.981 65.9341 235.715 65.6612 235.522 65.2988C235.334 64.9365 235.24 64.4894 235.24 63.9577C235.24 63.3835 235.35 62.8965 235.571 62.4965C235.797 62.0918 236.105 61.7835 236.496 61.5718C236.891 61.36 237.348 61.2541 237.865 61.2541C238.143 61.2541 238.409 61.2871 238.663 61.353C238.922 61.4141 239.141 61.5012 239.32 61.6141L238.811 62.6165C238.67 62.5177 238.522 62.4518 238.367 62.4188C238.216 62.3812 238.061 62.3624 237.901 62.3624C237.52 62.3624 237.214 62.4777 236.983 62.7082C236.757 62.9388 236.644 63.2753 236.644 63.7177C236.644 63.7977 236.644 63.8824 236.644 63.9718C236.649 64.0565 236.658 64.1435 236.673 64.233L236.32 63.9435C236.414 63.7694 236.527 63.6235 236.658 63.5059C236.795 63.3882 236.955 63.2988 237.138 63.2377C237.327 63.1765 237.536 63.1459 237.767 63.1459C238.077 63.1459 238.36 63.2118 238.614 63.3435C238.873 63.4706 239.08 63.6518 239.235 63.8871C239.39 64.1177 239.468 64.3906 239.468 64.7059C239.468 65.0494 239.381 65.3482 239.207 65.6024C239.033 65.8518 238.8 66.0471 238.508 66.1882C238.216 66.3247 237.889 66.393 237.527 66.393ZM237.442 65.3977C237.574 65.3977 237.689 65.3718 237.788 65.32C237.891 65.2682 237.971 65.1953 238.028 65.1012C238.084 65.0071 238.113 64.8965 238.113 64.7694C238.113 64.5812 238.049 64.4306 237.922 64.3177C237.8 64.2047 237.637 64.1482 237.435 64.1482C237.298 64.1482 237.178 64.1741 237.075 64.2259C236.976 64.2777 236.896 64.3506 236.835 64.4447C236.778 64.5388 236.75 64.6494 236.75 64.7765C236.75 64.8988 236.778 65.0071 236.835 65.1012C236.891 65.1906 236.971 65.2635 237.075 65.32C237.178 65.3718 237.301 65.3977 237.442 65.3977ZM241.052 66.2941L242.979 61.8682L243.353 62.4612H240.848L241.419 61.8188V63.2235H240.226V61.353H244.32V62.2282L242.577 66.2941H241.052Z" fill="#0F69B2"/>
<defs>
<clipPath id="clip0_7_190">
<rect width="57.8824" height="59.2941" fill="white" transform="translate(0 18.3529)"/>
</clipPath>
</defs>
</svg>
